<?xml version="1.0" standalone="no"?>
<!DOCTYPE svg PUBLIC "-//W3C//DTD SVG 20010904//EN"
 "http://www.w3.org/TR/2001/REC-SVG-20010904/DTD/svg10.dtd">
<svg version="1.0" xmlns="http://www.w3.org/2000/svg"
 width="939.000000pt" height="940.000000pt" viewBox="0 0 939.000000 940.000000"
 preserveAspectRatio="xMidYMid meet">

<g transform="translate(0.000000,940.000000) scale(0.100000,-0.100000)"
fill="#000000" stroke="none">
<path d="M4645 9150 c-175 -6 -194 -8 -237 -31 -66 -34 -238 -119 -338 -168
-47 -23 -134 -68 -195 -101 -60 -34 -118 -63 -127 -66 -9 -3 -104 -95 -210
-203 -106 -109 -205 -205 -219 -214 -32 -21 -93 -24 -144 -7 -22 8 -76 14
-120 14 -79 0 -82 -1 -215 -65 -124 -61 -165 -76 -330 -122 -54 -15 -239 -34
-395 -40 -44 -2 -96 -9 -115 -17 -19 -7 -53 -20 -75 -28 -109 -40 -192 -91
-273 -167 -54 -50 -72 -59 -147 -79 -33 -9 -87 -26 -120 -37 -99 -36 -126 -36
-158 0 -15 17 -27 35 -27 41 0 10 -106 119 -151 155 -27 22 -91 55 -153 80
-113 45 -264 57 -387 31 -59 -12 -81 -20 -129 -48 -8 -4 -22 -11 -30 -15 -8
-3 -31 -18 -50 -32 -33 -24 -43 -26 -167 -29 l-133 -4 0 -54 0 -54 63 0 c57 0
133 -12 143 -23 2 -2 -10 -30 -28 -63 -32 -58 -32 -61 -32 -189 0 -71 4 -147
8 -169 l7 -38 -32 23 c-18 13 -54 34 -79 45 l-45 22 -3 -31 c-2 -17 1 -33 7
-35 6 -2 17 -9 24 -15 7 -7 28 -21 46 -31 19 -11 44 -27 55 -37 12 -10 31 -26
43 -36 43 -37 92 -58 104 -46 9 9 9 16 1 25 -27 33 -71 189 -79 278 -6 71 8
166 31 208 8 15 20 37 25 50 30 65 172 165 266 187 175 41 387 -19 512 -144
72 -72 75 -77 98 -129 10 -23 22 -42 27 -42 4 0 8 -9 8 -20 0 -13 -9 -22 -25
-26 -14 -3 -25 -10 -25 -14 0 -4 -13 -13 -30 -20 -16 -7 -30 -15 -30 -19 0 -3
-18 -15 -40 -25 -22 -11 -40 -23 -40 -28 0 -4 -4 -8 -10 -8 -5 0 -56 -30 -112
-67 -111 -72 -150 -96 -185 -115 -13 -6 -23 -15 -23 -19 0 -4 -20 -19 -45 -33
-25 -15 -45 -31 -45 -36 0 -6 -7 -10 -15 -10 -8 0 -15 -4 -15 -10 0 -5 -4 -10
-10 -10 -9 0 -308 -217 -358 -260 -13 -11 -27 -20 -32 -20 -5 0 -10 -4 -12 -8
-1 -5 -29 -28 -61 -51 -54 -41 -57 -45 -57 -88 l0 -44 57 43 c32 23 63 47 68
53 6 7 28 25 50 40 22 16 45 34 50 40 18 20 124 95 135 95 5 0 10 4 10 8 0 8
48 44 150 113 30 21 92 65 138 98 46 34 85 61 88 61 3 0 10 5 17 11 23 20 227
149 236 149 5 0 11 3 13 8 5 11 66 52 77 52 5 0 16 6 23 13 8 6 40 26 73 42
33 17 80 42 105 56 77 44 163 73 295 100 63 13 85 27 162 106 69 71 170 125
304 162 86 24 253 28 374 10 39 -6 95 -14 126 -18 38 -5 69 -16 91 -33 54 -41
123 -115 144 -153 10 -19 22 -35 26 -35 5 0 8 -4 8 -9 0 -6 13 -29 29 -53 31
-46 84 -141 126 -225 15 -29 30 -55 36 -58 5 -4 9 -15 9 -25 0 -10 3 -20 8
-22 7 -3 52 -85 99 -183 13 -27 29 -59 35 -70 16 -29 87 -172 98 -197 6 -13
14 -30 19 -38 4 -8 22 -44 38 -80 17 -36 44 -94 61 -130 16 -36 41 -90 55
-120 27 -58 63 -165 92 -267 17 -59 17 -64 2 -81 -10 -10 -17 -23 -17 -29 0
-6 -3 -13 -8 -15 -4 -1 -23 -23 -42 -48 -19 -25 -48 -59 -65 -77 -16 -17 -44
-46 -61 -65 -74 -79 -104 -98 -186 -117 -64 -16 -109 -8 -205 36 -28 12 -60
23 -70 23 -10 0 -50 -33 -88 -72 -109 -113 -198 -189 -350 -298 -77 -56 -148
-108 -158 -116 -9 -7 -20 -14 -24 -14 -3 0 -21 -11 -39 -25 -18 -14 -37 -25
-42 -25 -6 0 -12 -3 -14 -8 -1 -4 -37 -30 -78 -57 -41 -27 -81 -54 -88 -61 -6
-7 -21 -16 -32 -19 -11 -3 -20 -11 -20 -16 0 -5 -7 -9 -15 -9 -8 0 -15 -4 -15
-9 0 -5 -8 -11 -17 -15 -18 -5 -53 -26 -63 -36 -3 -3 -23 -17 -45 -31 -159
-103 -250 -165 -253 -171 -2 -5 -10 -8 -17 -8 -7 0 -15 -4 -17 -8 -2 -4 -37
-30 -78 -57 -41 -27 -77 -52 -80 -55 -3 -3 -40 -29 -82 -57 -120 -80 -278
-196 -278 -205 0 -4 -4 -8 -10 -8 -13 0 -100 -62 -100 -72 0 -4 -7 -8 -15 -8
-8 0 -15 -4 -15 -9 0 -5 -8 -12 -18 -15 -10 -3 -37 -24 -61 -46 -23 -22 -45
-40 -47 -40 -3 0 -15 -10 -27 -23 -12 -12 -49 -45 -82 -72 -128 -107 -312
-302 -412 -438 -24 -31 -43 -62 -43 -67 0 -6 -4 -10 -8 -10 -4 0 -30 -32 -57
-71 -28 -38 -58 -80 -67 -91 -14 -16 -18 -39 -18 -96 l0 -75 35 46 c19 25 35
51 35 56 0 6 4 11 8 11 5 0 16 18 26 40 19 44 36 52 36 18 0 -84 23 -397 30
-413 5 -11 11 -45 13 -75 12 -142 72 -424 123 -575 8 -23 14 -50 14 -62 0 -12
4 -24 9 -27 5 -3 11 -20 14 -38 2 -18 10 -49 17 -68 7 -19 19 -51 25 -70 7
-19 22 -57 33 -85 11 -27 23 -65 27 -84 l7 -34 -133 7 c-110 6 -146 12 -213
37 -44 16 -86 29 -93 29 -10 0 -13 -20 -13 -75 l0 -74 60 -43 c33 -23 60 -46
60 -50 0 -4 6 -8 14 -8 8 0 16 -3 18 -7 5 -13 86 -73 97 -73 6 0 11 -4 11 -9
0 -5 14 -14 30 -21 17 -7 30 -16 30 -20 0 -4 8 -10 17 -14 18 -5 53 -26 63
-36 7 -7 43 -29 60 -37 8 -4 17 -10 20 -13 5 -8 15 -12 153 -83 58 -29 103
-59 118 -79 13 -17 31 -38 40 -47 8 -9 31 -36 49 -61 19 -25 38 -46 42 -48 5
-2 8 -9 8 -15 0 -15 392 -407 407 -407 6 0 13 -3 15 -7 2 -5 32 -32 68 -61 36
-29 79 -66 96 -82 18 -16 54 -45 80 -66 27 -20 51 -39 54 -43 3 -4 34 -29 70
-56 36 -27 66 -53 68 -57 2 -4 8 -8 13 -8 5 0 17 -8 27 -18 10 -9 38 -33 61
-52 24 -19 59 -50 79 -67 21 -18 40 -33 43 -33 3 0 18 -11 34 -24 15 -13 48
-34 72 -46 37 -19 47 -20 54 -9 15 22 0 77 -43 169 -119 252 -142 299 -161
337 -24 49 -21 57 13 38 14 -7 41 -22 60 -31 19 -10 54 -31 76 -46 23 -15 46
-28 52 -28 5 0 15 -7 22 -15 7 -8 19 -15 27 -15 8 0 38 -11 66 -24 29 -13 94
-41 146 -62 60 -25 96 -46 101 -59 11 -26 74 -125 94 -147 9 -10 16 -22 16
-27 0 -5 3 -11 8 -13 4 -1 40 -37 80 -79 l73 -76 -21 -74 c-11 -40 -20 -88
-20 -106 l0 -33 655 0 c360 0 655 3 655 7 0 3 -11 21 -25 39 -14 18 -25 35
-25 39 0 3 -9 16 -21 28 -12 12 -39 49 -62 82 -22 33 -44 61 -49 63 -4 2 -8 8
-8 14 0 6 -8 17 -17 24 -32 22 -4 28 75 15 42 -6 156 -16 252 -21 96 -5 195
-12 220 -15 80 -9 640 -35 803 -36 86 0 157 -4 157 -8 0 -5 -12 -30 -26 -56
-22 -42 -74 -162 -74 -172 0 -2 267 -3 594 -3 l594 0 -10 48 c-5 26 -14 57
-20 69 -9 19 0 32 88 121 l99 99 95 7 c169 11 363 44 428 72 18 8 40 14 48 14
17 0 128 43 216 83 29 14 84 37 123 53 38 16 101 46 140 66 38 21 89 48 113
60 23 12 42 26 42 30 0 4 7 8 16 8 11 0 14 -6 11 -18 -3 -9 -15 -48 -27 -87
-12 -38 -25 -83 -30 -100 -5 -16 -16 -52 -24 -80 -8 -27 -17 -58 -21 -68 -7
-16 -3 -18 34 -15 45 3 60 21 24 26 -18 3 -23 10 -23 33 0 26 3 29 35 29 32 0
35 3 45 43 6 23 18 62 26 87 8 25 14 55 14 66 0 12 7 35 15 50 8 16 15 37 15
47 0 10 61 79 135 154 74 74 135 142 135 149 0 8 4 14 8 14 4 0 16 13 25 30
10 16 24 35 31 42 12 13 54 79 76 123 6 11 19 34 30 50 19 30 124 239 154 306
17 38 42 126 58 199 5 25 15 65 23 90 33 112 40 222 39 625 0 334 -3 407 -16
445 l-15 45 -149 6 c-82 4 -152 7 -156 8 -5 0 -8 88 -9 194 -2 437 -24 846
-50 957 -6 25 -15 72 -19 105 -5 33 -13 80 -18 105 -6 25 -16 74 -22 110 -15
81 -55 250 -85 355 -19 67 -63 227 -81 295 -8 30 -25 89 -38 130 -38 121 -40
143 -7 78 28 -55 132 -202 156 -223 7 -5 32 -37 55 -70 24 -33 47 -62 50 -65
4 -3 36 -39 71 -80 35 -41 71 -82 79 -91 8 -9 28 -31 44 -50 32 -39 134 -153
180 -203 17 -18 50 -55 72 -82 23 -27 50 -59 60 -70 11 -12 35 -41 54 -64 19
-23 44 -52 55 -65 78 -87 174 -210 183 -235 5 -14 15 -63 21 -110 7 -47 17
-114 24 -150 7 -44 11 -237 11 -585 0 -523 -4 -620 -41 -855 -8 -52 -18 -122
-23 -155 -5 -33 -16 -91 -24 -130 -9 -38 -21 -90 -26 -115 -17 -86 -80 -286
-127 -405 -39 -99 -157 -342 -172 -355 -3 -3 -13 -18 -21 -35 -31 -62 -157
-238 -190 -265 -3 -3 -21 -25 -40 -50 -41 -53 -56 -71 -148 -170 -38 -41 -85
-93 -103 -115 -19 -23 -51 -58 -71 -79 -21 -22 -38 -43 -38 -48 0 -4 -4 -8 -9
-8 -7 0 -161 -149 -161 -156 0 -9 -133 -134 -138 -129 -3 3 1 27 10 53 9 26
20 64 23 85 4 20 11 40 16 43 21 12 6 24 -29 24 l-39 0 -42 -122 c-23 -68 -46
-139 -50 -158 -5 -19 -12 -43 -16 -52 -6 -16 0 -18 53 -18 51 0 62 3 74 22 9
13 37 46 64 74 27 28 105 111 174 184 69 73 155 164 193 202 37 38 67 71 67
73 0 1 19 23 43 47 74 77 94 104 107 143 11 34 64 94 83 95 10 0 47 38 47 49
0 5 4 11 8 13 10 4 122 152 122 162 0 6 38 65 50 76 3 3 20 34 39 70 18 36 36
67 40 70 8 6 37 70 81 175 7 17 18 44 25 60 27 65 45 113 70 195 15 47 33 105
41 130 8 25 14 54 14 64 0 11 6 42 14 70 26 91 38 158 65 348 9 65 36 117 94
182 9 11 17 26 17 33 0 7 5 13 10 13 6 0 15 10 20 23 6 12 19 36 30 52 11 17
23 37 26 45 3 8 19 42 34 75 33 72 43 102 71 218 18 76 20 112 17 250 -2 113
-9 179 -20 217 -9 30 -26 87 -37 125 -25 86 -46 146 -73 205 -22 47 -29 62
-75 150 -32 62 -144 233 -155 238 -5 2 -8 10 -8 18 0 8 -4 14 -8 14 -5 0 -24
21 -42 48 -42 58 -125 160 -154 188 -11 11 -39 43 -61 69 -50 61 -123 143
-152 172 -13 12 -23 24 -23 27 0 3 -15 20 -32 38 -18 19 -55 60 -83 92 -27 32
-60 70 -73 85 -13 14 -31 35 -40 46 -94 109 -140 162 -154 177 -10 9 -28 34
-42 55 -13 21 -33 47 -43 58 -30 31 -113 158 -113 172 0 7 -3 13 -8 13 -4 0
-18 21 -31 48 -33 64 -34 69 -55 137 -11 33 -25 77 -32 98 -8 20 -14 46 -14
57 0 10 -5 31 -12 45 -11 25 -12 25 -137 25 -101 0 -138 4 -183 20 -80 28
-124 54 -161 97 -18 20 -43 48 -57 62 -32 31 -60 73 -60 89 0 7 13 12 33 12
19 0 60 9 93 21 32 11 69 23 81 26 12 3 28 11 34 19 6 8 16 14 21 14 6 0 37
18 70 40 33 22 63 40 67 40 3 0 17 10 31 23 14 12 41 34 60 47 59 41 290 265
290 281 0 5 3 9 8 9 4 0 25 25 47 55 22 30 43 55 47 55 4 0 8 7 8 15 0 8 5 15
10 15 6 0 10 5 10 11 0 6 14 28 30 49 17 21 30 42 30 48 0 5 6 15 14 21 8 7
22 26 31 44 9 18 25 46 35 62 11 17 24 39 29 50 5 11 24 54 43 95 32 68 75
176 107 270 28 79 71 274 71 321 0 29 7 60 16 74 16 25 19 25 156 25 94 0 160
-5 202 -16 82 -20 146 -45 146 -55 0 -5 4 -9 10 -9 13 0 77 -65 95 -98 8 -15
19 -34 24 -42 8 -14 15 -30 55 -123 9 -21 16 -44 16 -52 0 -24 39 -120 58
-141 9 -11 22 -29 28 -39 23 -41 34 -28 34 38 0 51 -4 67 -20 82 -11 10 -20
24 -20 32 0 10 6 12 20 8 19 -6 20 -2 20 69 0 68 -2 77 -28 103 -26 26 -79
107 -94 146 -4 9 -12 17 -18 17 -5 0 -10 7 -10 15 0 8 -3 15 -7 15 -5 0 -28
18 -51 40 -24 22 -48 40 -52 40 -5 0 -15 6 -22 13 -18 17 -102 44 -178 57
-110 19 -213 42 -250 55 -75 27 -137 44 -195 55 -123 22 -210 44 -225 55 -8 6
-54 30 -102 53 -78 38 -94 42 -162 42 l-74 0 -39 44 c-21 24 -47 61 -58 82
-11 22 -29 53 -41 69 -12 17 -37 59 -55 95 -19 35 -41 72 -49 82 -40 49 -120
125 -146 138 -16 8 -51 30 -79 48 -27 18 -57 37 -65 42 -64 41 -186 124 -190
129 -11 15 -89 71 -98 71 -5 0 -15 6 -21 14 -6 8 -22 16 -34 19 -72 16 -222
60 -287 83 -101 36 -190 36 -280 0 -35 -14 -91 -33 -125 -42 -33 -8 -82 -21
-110 -29 -27 -7 -99 -21 -160 -31 -121 -18 -181 -47 -247 -119 -61 -68 -108
-115 -114 -115 -3 0 -19 -13 -37 -30 -18 -16 -35 -30 -38 -30 -3 0 -20 -20
-38 -45 -20 -29 -37 -42 -46 -38 -8 3 -15 9 -15 13 0 5 -13 23 -29 41 -17 18
-35 46 -41 63 -44 118 -82 166 -165 206 -38 19 -89 53 -93 63 -2 4 -8 7 -13 7
-6 0 -20 10 -32 23 -65 67 -172 108 -276 105 -36 -1 -151 -4 -256 -8z m391
-126 c21 -15 41 -30 44 -33 20 -27 164 -124 248 -167 88 -45 -23 -154 -156
-154 -68 0 -117 23 -178 82 l-42 40 -63 -7 c-35 -4 -91 -13 -124 -21 -33 -7
-88 -14 -122 -14 -34 0 -65 -5 -68 -10 -3 -6 -27 -20 -53 -31 -71 -32 -162
-77 -206 -102 -91 -51 -192 -181 -165 -213 18 -21 27 -17 53 24 36 56 86 106
136 138 94 58 272 144 300 144 55 0 207 25 284 48 16 4 18 2 11 -14 -5 -10
-12 -70 -15 -133 l-5 -114 -60 -20 c-33 -11 -76 -25 -95 -32 -57 -21 -204 -65
-217 -65 -22 0 -218 -67 -253 -87 -40 -22 -45 -33 -27 -57 13 -18 15 -17 55 8
23 14 48 26 56 26 8 0 25 4 38 9 47 18 140 42 144 38 3 -3 -25 -14 -63 -26
-74 -23 -153 -61 -153 -73 0 -5 -6 -8 -12 -8 -7 -1 -24 -15 -38 -33 -31 -39
-93 -100 -156 -152 -53 -44 -273 -261 -317 -313 -37 -44 -40 -74 -7 -82 23 -5
25 -11 31 -86 3 -44 12 -97 19 -119 22 -66 84 -169 162 -270 45 -57 149 -155
165 -155 7 0 13 -4 13 -9 0 -10 25 -26 90 -57 19 -9 42 -20 51 -24 18 -9 152
-41 389 -91 30 -6 73 -18 95 -26 22 -9 57 -21 78 -29 79 -29 123 -48 137 -59
8 -6 32 -20 54 -30 21 -11 46 -30 56 -42 10 -13 21 -23 24 -23 15 0 79 -79
114 -140 58 -102 72 -139 72 -187 0 -50 -25 -113 -45 -113 -7 0 -18 -7 -25
-15 -18 -22 -72 -18 -127 8 -27 12 -49 25 -51 30 -2 4 -8 7 -13 7 -11 0 -140
78 -154 94 -16 18 -79 62 -97 69 -10 3 -18 11 -18 16 0 14 -73 37 -180 56
-155 27 -262 53 -328 81 -18 8 -38 14 -44 14 -6 0 -35 11 -65 26 -57 26 -60
31 -89 129 -9 33 -20 67 -24 75 -4 8 -14 31 -22 50 -27 59 -216 439 -278 555
-77 145 -112 211 -140 265 -22 41 -64 112 -98 165 -6 11 -15 27 -19 35 -4 8
-24 43 -45 78 -21 34 -38 67 -38 72 0 6 -3 10 -8 10 -4 0 -32 37 -62 83 -30
45 -58 84 -61 87 -29 21 -7 50 215 284 42 44 76 81 76 83 0 5 96 97 141 135
24 21 96 64 159 96 63 33 138 71 165 85 28 14 93 46 146 71 52 25 128 65 169
88 l74 43 201 6 c110 3 227 6 261 7 51 2 67 -2 100 -24z m1691 -10 c21 -9 47
-21 58 -25 37 -16 120 -39 142 -39 38 0 132 -42 165 -74 31 -29 185 -136 236
-163 13 -7 40 -25 60 -40 49 -37 73 -52 95 -59 9 -4 17 -10 17 -15 0 -5 4 -9
10 -9 15 0 75 -64 94 -101 43 -82 49 -94 55 -99 8 -7 26 -36 52 -87 13 -24 26
-43 31 -43 4 0 8 -5 8 -11 0 -10 87 -147 101 -159 3 -3 8 -12 12 -20 12 -27
32 -55 45 -63 6 -4 12 -13 12 -20 0 -7 10 -23 23 -37 36 -41 49 -78 38 -114
-6 -17 -25 -78 -42 -136 -18 -58 -36 -112 -39 -120 -7 -15 -26 -58 -54 -122
-8 -18 -26 -60 -40 -93 -15 -33 -31 -67 -36 -75 -6 -8 -13 -23 -16 -32 -4 -10
-10 -18 -15 -18 -5 0 -18 -20 -29 -44 -11 -24 -23 -46 -27 -48 -5 -1 -20 -21
-34 -44 -61 -92 -233 -277 -339 -363 -25 -20 -47 -39 -50 -42 -3 -4 -34 -28
-70 -54 -62 -47 -66 -48 -132 -47 -38 1 -133 13 -212 27 -158 27 -173 26 -251
-24 -184 -116 -449 -200 -692 -217 -51 -4 -93 -11 -93 -15 0 -16 -216 -226
-249 -242 -40 -20 -135 -23 -147 -4 -5 6 -9 87 -9 178 0 146 3 171 20 205 30
59 122 145 190 178 33 16 68 33 78 38 57 29 197 59 407 89 96 13 152 40 266
125 91 69 196 183 239 262 11 20 23 39 26 42 8 7 94 189 103 217 4 12 18 31
32 42 22 17 24 26 24 100 0 63 -5 89 -22 123 -57 110 -294 292 -451 347 -60
20 -195 51 -227 51 -16 0 -41 5 -57 11 -15 6 -45 14 -66 17 -47 9 -51 22 -13
42 16 8 40 25 54 38 25 22 62 30 62 13 0 -5 10 -11 23 -14 12 -3 60 -20 107
-37 47 -18 99 -36 115 -40 54 -14 218 -88 223 -102 2 -4 8 -8 13 -8 5 0 17 -8
27 -17 32 -31 134 -118 149 -127 9 -5 19 -4 25 2 30 30 -252 251 -320 252 -7
0 -20 4 -30 9 -45 22 -94 41 -110 41 -10 0 -27 7 -38 15 -10 8 -26 15 -35 15
-25 0 -109 40 -109 51 0 9 20 49 30 59 19 19 40 74 40 107 0 65 9 83 41 83 29
0 120 -27 129 -39 3 -3 22 -17 42 -31 21 -14 38 -28 38 -32 0 -5 6 -8 14 -8 8
0 16 -4 18 -8 2 -5 57 -44 123 -87 66 -43 122 -81 125 -84 19 -22 121 -82 130
-76 11 7 -17 65 -32 65 -7 0 -61 34 -107 68 -13 9 -35 24 -50 32 -14 8 -28 17
-31 20 -3 3 -39 28 -80 55 -41 28 -86 60 -100 73 -14 12 -28 22 -31 22 -4 0
-14 16 -24 35 l-16 36 -59 -7 c-32 -3 -75 -3 -96 0 -35 7 -36 9 -31 42 8 45
-7 44 -54 -6 -21 -22 -43 -40 -49 -40 -5 0 -10 -4 -10 -9 0 -14 -122 -68 -182
-81 -51 -10 -60 -9 -103 11 -49 23 -95 74 -95 105 1 23 23 54 39 54 6 0 11 5
11 10 0 6 8 14 18 18 42 17 93 60 118 100 63 99 116 130 251 148 l51 6 20 -43
c50 -108 123 -171 212 -184 40 -5 68 -2 163 21 29 7 78 -14 252 -104 71 -37
199 -133 276 -208 37 -35 74 -64 83 -64 20 0 21 39 1 46 -8 4 -15 11 -15 16 0
14 -42 52 -91 85 -22 14 -39 30 -39 34 0 5 -6 9 -14 9 -8 0 -16 3 -18 8 -5 12
-158 116 -188 128 -8 3 -27 12 -42 20 -14 8 -31 14 -37 14 -6 0 -29 12 -51 26
-28 19 -40 34 -42 55 l-3 28 -45 -28 c-47 -29 -79 -40 -146 -48 -72 -9 -167
52 -202 130 -22 49 -16 65 28 77 22 5 57 15 79 20 21 6 46 10 55 10 9 0 40 12
69 26 28 14 63 30 77 35 34 11 121 3 167 -17z m-1702 -357 c64 -43 182 -48
270 -12 81 34 96 32 136 -16 48 -57 57 -90 58 -207 1 -69 6 -113 15 -130 52
-98 64 -176 32 -211 -27 -29 -106 -29 -155 1 -20 12 -39 27 -43 32 -3 6 -16
22 -28 36 -23 26 -47 74 -75 152 -14 37 -16 63 -10 123 6 65 5 75 -10 75 -9 0
-24 -18 -35 -45 -18 -42 -22 -45 -47 -39 -16 4 -56 20 -90 36 -73 34 -83 55
-75 156 5 67 16 76 57 49z m1105 -187 c0 -81 -44 -148 -130 -195 -19 -11 -38
-24 -41 -29 -4 -5 -24 -12 -45 -15 -37 -6 -38 -8 -58 -76 -18 -62 -29 -79 -96
-147 -41 -43 -80 -78 -87 -78 -7 0 -13 -4 -13 -9 0 -5 -13 -14 -29 -21 -64
-26 -183 19 -189 71 -3 22 2 27 29 33 17 3 41 6 52 6 12 0 34 12 49 27 24 23
28 34 28 82 0 31 -7 86 -16 122 -15 62 -15 69 1 102 19 40 79 104 106 112 10
4 39 -3 65 -14 26 -12 61 -21 78 -21 65 0 252 69 271 100 15 25 25 5 25 -50z
m-1127 -60 c35 -16 79 -33 98 -36 47 -9 64 -27 80 -81 7 -26 23 -65 36 -87 12
-23 27 -50 32 -62 12 -27 56 -73 102 -106 27 -20 39 -39 48 -72 16 -63 14
-122 -5 -140 -24 -24 -95 -20 -151 9 -59 31 -71 41 -103 85 -54 76 -63 104
-56 179 7 75 2 84 -49 95 -27 6 -193 84 -205 96 -3 3 -22 16 -42 30 -21 14
-38 29 -38 34 0 14 33 35 55 36 11 1 45 12 75 25 30 13 56 24 57 24 2 1 31
-12 66 -29z m-299 -142 c5 -10 7 -10 12 0 11 23 35 15 119 -39 63 -41 135 -79
147 -79 28 0 48 -34 48 -80 0 -50 26 -140 41 -140 5 0 9 -6 9 -13 0 -21 92
-103 145 -130 28 -13 69 -28 93 -32 47 -8 52 -20 25 -68 -17 -30 -71 -87 -83
-87 -3 0 -30 9 -60 20 -57 21 -136 72 -158 102 -7 9 -18 23 -25 30 -42 45 -59
141 -36 207 15 42 7 47 -35 27 -22 -11 -45 -14 -63 -10 -40 9 -213 95 -213
106 0 4 -7 8 -16 8 -12 0 -15 7 -12 30 l5 30 -131 -2 c-140 -2 -174 5 -134 28
79 45 233 100 290 103 14 0 29 -5 32 -11z m-94 -226 c32 -29 126 -80 217 -118
70 -28 72 -30 79 -69 3 -22 14 -58 23 -80 20 -46 116 -155 137 -155 8 0 14 -4
14 -9 0 -5 29 -21 64 -36 71 -30 104 -30 231 -1 39 8 87 18 108 21 20 3 37 10
37 15 0 6 8 10 18 10 20 1 62 33 62 49 0 6 4 11 9 11 6 0 16 11 23 24 26 49
56 112 68 143 6 18 30 46 51 64 21 17 54 45 73 63 56 50 63 55 105 77 37 19
47 20 118 11 105 -14 186 -32 197 -43 6 -5 19 -9 29 -9 24 0 207 -90 207 -101
0 -5 7 -9 15 -9 8 0 15 -4 15 -8 0 -4 12 -15 28 -24 44 -27 155 -141 176 -180
19 -37 19 -37 -9 -120 -34 -102 -128 -300 -167 -349 -15 -20 -28 -40 -28 -44
0 -12 -164 -185 -176 -185 -1 0 -15 -11 -29 -24 -28 -26 -161 -86 -192 -86
-10 0 -40 -7 -67 -15 -27 -8 -63 -15 -79 -15 -17 0 -58 -6 -91 -14 -34 -8 -88
-20 -121 -27 -53 -11 -81 -21 -135 -50 -8 -4 -38 -20 -67 -35 -28 -14 -69 -43
-90 -64 -35 -33 -94 -112 -107 -143 -3 -7 -14 0 -28 18 -41 53 -133 145 -145
145 -7 0 -16 6 -20 14 -4 7 -38 29 -75 49 -98 53 -99 53 -143 66 -22 7 -56 18
-75 25 -100 38 -160 52 -392 94 -63 12 -184 57 -209 78 -8 8 -21 14 -27 14 -7
0 -12 5 -12 10 0 6 -4 10 -10 10 -8 0 -130 117 -130 126 0 1 -12 16 -26 31
-39 42 -76 100 -114 177 -33 68 -33 72 -32 193 0 100 4 129 18 151 21 33 103
114 209 207 44 39 82 73 85 76 16 19 92 58 121 62 19 3 79 4 134 3 90 -1 104
-4 125 -24z m3938 -129 c17 -7 32 -16 32 -19 0 -10 -76 9 -105 27 l-30 19 35
-7 c19 -3 50 -12 68 -20z m-2977 -67 l57 -11 -24 -49 c-13 -27 -34 -60 -46
-73 -28 -30 -97 -63 -133 -63 -28 0 -28 0 -22 50 6 46 24 87 54 118 7 7 13 22
13 33 0 17 4 19 23 13 12 -4 47 -12 78 -18z m1033 -1453 c16 -18 32 -30 37
-28 4 3 9 2 11 -2 1 -5 82 -48 178 -96 96 -49 189 -97 205 -108 17 -10 36 -22
43 -25 17 -8 15 -71 -4 -155 l-16 -69 -30 27 c-17 16 -76 75 -132 132 -55 57
-136 138 -178 181 -42 44 -95 91 -118 106 l-42 28 -32 -35 c-17 -19 -44 -53
-61 -74 -16 -21 -37 -46 -45 -54 -9 -9 -36 -41 -60 -71 -59 -74 -206 -219
-252 -250 -21 -14 -38 -28 -38 -32 0 -5 -6 -8 -13 -8 -7 0 -26 -12 -43 -27
-17 -16 -50 -38 -75 -50 -24 -12 -66 -36 -94 -53 -27 -16 -59 -34 -70 -40 -11
-6 -33 -18 -50 -28 -82 -50 -122 -73 -147 -83 -16 -6 -28 -15 -28 -19 0 -4
-15 -10 -32 -13 -25 -4 -52 4 -108 31 -41 21 -79 41 -85 45 -10 8 -43 26 -142
77 -26 13 -106 58 -178 99 -71 41 -139 79 -150 85 -90 50 -197 142 -413 355
-62 61 -117 111 -122 111 -6 0 -10 4 -10 9 0 25 -41 20 -86 -11 -27 -18 -50
-36 -52 -40 -2 -4 -7 -8 -12 -8 -11 0 -76 -58 -198 -177 -58 -57 -106 -103
-108 -103 -2 0 -32 -27 -66 -60 -33 -33 -66 -60 -72 -60 -6 0 -27 26 -45 58
-19 31 -37 59 -40 62 -8 7 -51 86 -51 94 0 6 84 46 98 46 9 0 60 21 137 55 17
7 44 17 60 21 17 4 35 10 40 14 6 3 38 17 72 30 116 45 171 101 173 174 0 23
3 27 18 21 9 -4 46 -15 82 -25 36 -10 79 -23 95 -28 72 -25 110 -34 163 -42
162 -25 271 -53 298 -78 11 -10 42 -33 69 -52 28 -18 52 -36 55 -39 12 -14 70
-51 80 -51 5 0 10 -3 10 -8 0 -4 17 -16 38 -26 20 -10 49 -25 65 -33 43 -23
158 -29 196 -10 17 8 31 12 31 8 0 -4 15 -16 33 -26 26 -13 49 -16 103 -13 60
4 76 10 124 42 68 47 123 97 175 159 49 59 81 77 137 77 87 0 262 30 353 61
17 6 44 14 60 18 17 4 39 13 50 19 11 6 41 18 66 27 25 9 59 27 75 40 l29 23
5 -46 c4 -33 14 -57 34 -79z m-2767 -79 c-3 -3 -12 -4 -19 -1 -8 3 -5 6 6 6
11 1 17 -2 13 -5z m591 -173 c88 -88 179 -172 201 -187 23 -15 41 -31 41 -35
0 -5 7 -9 15 -9 8 0 15 -4 15 -9 0 -5 8 -11 18 -15 17 -5 52 -26 62 -36 60
-61 662 -380 716 -380 17 0 51 11 75 25 24 13 62 34 84 45 22 11 49 26 60 33
36 23 90 54 150 87 75 41 169 102 173 112 2 5 8 8 14 8 6 0 42 21 82 47 78 52
176 145 250 236 26 32 55 66 64 76 9 10 37 44 62 75 25 31 52 56 62 56 13 0
188 -163 188 -175 0 -6 200 -205 206 -205 3 0 15 -10 27 -23 36 -38 87 -69
102 -63 18 6 31 57 45 176 6 52 13 96 15 98 5 6 45 -37 45 -48 0 -5 4 -10 8
-10 5 0 23 -20 40 -44 40 -55 98 -116 112 -116 5 0 10 -3 10 -7 0 -11 58 -42
105 -58 22 -7 72 -16 110 -19 129 -12 118 -3 159 -127 20 -60 36 -116 36 -124
0 -20 -199 -220 -208 -209 -5 5 -24 29 -43 54 -47 61 -134 146 -205 200 -32
25 -61 48 -64 52 -3 4 -26 17 -50 28 -25 12 -65 32 -89 45 -24 14 -52 25 -61
25 -9 0 -20 4 -26 9 -5 5 -45 19 -89 32 -103 30 -342 34 -415 7 -25 -9 -58
-19 -75 -23 -84 -18 -274 -129 -359 -210 -20 -19 -42 -35 -47 -35 -5 0 -9 -4
-9 -9 0 -5 -17 -27 -37 -48 -43 -43 -123 -162 -123 -180 0 -7 -4 -13 -8 -13
-5 0 -23 -37 -41 -82 -18 -46 -37 -92 -41 -103 -20 -49 -50 -166 -50 -197 0
-41 15 -58 50 -58 26 0 30 7 75 115 9 22 20 47 25 55 5 8 17 31 27 50 56 115
238 330 279 330 8 0 14 5 14 10 0 6 10 15 23 20 12 6 36 19 52 29 17 11 37 20
46 20 9 1 22 7 28 15 6 8 22 16 34 19 12 3 56 17 96 31 127 44 341 45 487 3
100 -29 238 -98 327 -163 64 -47 188 -167 200 -194 10 -21 31 -54 39 -60 4 -3
26 -46 48 -95 23 -50 49 -104 56 -121 16 -33 66 -64 72 -45 2 6 10 11 18 11
18 0 18 28 0 88 -8 26 -19 72 -26 102 -7 29 -24 78 -37 108 l-24 55 48 44 c26
24 68 63 91 85 51 48 50 48 83 -57 12 -38 30 -96 41 -129 10 -32 23 -77 28
-100 5 -22 16 -63 24 -91 42 -146 58 -206 71 -265 8 -36 21 -90 29 -120 17
-63 44 -199 50 -250 2 -19 11 -73 19 -120 9 -47 21 -148 27 -225 6 -77 15
-169 20 -205 5 -36 10 -227 10 -426 l0 -361 161 -6 c89 -4 164 -8 166 -10 2
-3 11 -69 19 -148 29 -269 2 -737 -56 -964 -16 -63 -64 -194 -96 -262 -13 -28
-24 -58 -24 -65 0 -8 -4 -18 -9 -23 -5 -6 -32 -55 -61 -110 -29 -55 -64 -114
-76 -132 -13 -17 -24 -34 -24 -37 0 -11 -64 -96 -72 -96 -4 0 -8 -4 -8 -9 0
-17 -127 -149 -250 -260 -32 -30 -191 -130 -250 -158 -77 -37 -222 -103 -226
-103 -7 0 -128 -47 -169 -65 -16 -7 -55 -20 -85 -29 -30 -9 -77 -22 -105 -30
-104 -30 -278 -48 -570 -61 -71 -3 -179 -12 -240 -20 -123 -16 -324 -38 -490
-55 -174 -18 -685 -23 -950 -10 -132 6 -328 15 -435 19 -200 9 -341 22 -490
46 -47 7 -141 21 -210 30 -147 19 -226 30 -335 46 -44 6 -96 13 -115 15 -38 5
-169 30 -240 46 -25 6 -61 14 -80 18 -34 8 -181 47 -270 73 -25 7 -55 18 -67
25 -12 6 -31 12 -42 12 -11 0 -22 4 -25 9 -3 5 -29 16 -58 25 -29 9 -66 23
-83 31 -31 14 -174 80 -210 96 -11 5 -33 18 -50 29 -16 11 -37 23 -45 27 -72
32 -190 131 -190 159 0 7 -6 25 -14 41 -8 15 -20 42 -26 58 -7 17 -18 44 -25
60 -11 26 -59 145 -87 215 -6 14 -16 39 -23 55 -7 17 -15 39 -18 50 -3 11 -15
45 -27 75 -24 62 -43 120 -67 200 -8 30 -21 71 -28 90 -36 101 -67 222 -109
415 -40 187 -46 224 -76 440 -42 311 -43 1020 0 1190 5 22 10 61 10 86 0 25 4
70 9 100 5 30 17 99 26 154 10 55 23 129 31 165 7 36 20 101 29 145 9 44 21
94 26 111 5 17 9 39 9 49 0 10 8 43 17 73 13 40 28 63 59 88 22 19 46 34 53
34 6 0 11 4 11 8 0 5 11 14 25 20 14 7 31 16 38 22 25 21 88 60 97 60 6 0 10
3 10 8 0 4 21 20 48 36 26 16 91 59 145 95 54 36 106 71 115 76 9 6 19 12 22
15 3 3 32 23 65 45 33 22 62 43 63 48 2 4 8 7 13 7 10 0 62 35 87 58 7 6 17
12 22 12 5 0 34 20 65 45 30 25 55 41 55 35 0 -5 -4 -10 -10 -10 -5 0 -10 -7
-10 -15 0 -8 -4 -15 -10 -15 -5 0 -10 -6 -10 -14 0 -8 -3 -16 -7 -18 -41 -18
-192 -369 -193 -447 0 -31 27 -61 55 -61 23 0 30 10 105 155 23 44 49 92 57
108 8 15 19 27 24 27 5 0 9 5 9 11 0 6 15 30 32 53 130 165 292 265 548 338
104 30 353 32 450 4 76 -21 147 -44 175 -56 120 -51 215 -103 223 -122 2 -5
10 -8 18 -8 19 0 170 -150 216 -215 20 -27 56 -91 81 -141 50 -103 76 -134
111 -134 32 0 38 27 21 108 -22 107 -30 133 -60 195 -15 32 -23 62 -19 66 5 4
29 23 54 42 57 43 151 137 168 166 16 31 15 40 -9 74 -25 36 -57 37 -93 4 -15
-14 -29 -25 -31 -25 -1 0 -40 -37 -85 -82 l-82 -82 -25 29 c-88 107 -240 239
-333 290 -19 11 -42 25 -50 31 -8 6 -32 17 -52 25 l-38 13 41 26 c22 15 48 35
58 46 11 10 50 46 87 79 37 33 115 106 173 161 100 96 194 183 198 184 1 0 73
-72 161 -159z m-888 -109 c14 -20 27 -41 29 -45 2 -5 23 -41 47 -80 24 -39 42
-73 40 -75 -3 -2 -21 1 -41 8 -54 18 -163 42 -222 49 l-51 6 74 80 c40 44 74
83 74 88 0 19 28 3 50 -31z m-606 -188 c4 -11 -5 -19 -32 -30 -20 -8 -45 -19
-55 -25 -30 -17 -31 -3 -2 35 30 39 78 50 89 20z m-1534 -1131 c-6 -32 -17
-85 -25 -118 -7 -33 -18 -85 -23 -115 -6 -30 -18 -91 -26 -135 -9 -44 -18 -96
-20 -115 -2 -19 -9 -66 -15 -105 -42 -286 -46 -343 -46 -810 0 -463 5 -550 45
-770 5 -27 12 -70 15 -95 7 -56 42 -218 70 -330 8 -30 22 -86 31 -125 9 -38
27 -102 40 -141 13 -39 24 -76 24 -83 0 -7 6 -27 14 -44 8 -18 16 -41 19 -52
3 -11 15 -45 27 -75 12 -30 25 -68 30 -85 8 -31 71 -197 94 -250 8 -16 28 -66
46 -110 30 -75 71 -168 91 -207 5 -10 9 -22 9 -27 0 -5 24 -60 54 -122 29 -63
61 -132 70 -154 10 -22 24 -53 31 -70 46 -103 53 -125 38 -125 -7 0 -53 37
-93 73 -8 8 -34 26 -58 41 -23 15 -51 34 -60 44 -10 9 -53 44 -95 77 -42 32
-77 63 -77 67 0 4 -4 8 -10 8 -5 0 -20 10 -33 23 -13 12 -70 60 -127 107 -57
47 -166 146 -243 220 -77 74 -147 142 -156 150 -9 9 -34 37 -56 64 -22 26 -46
54 -52 61 -7 7 -13 18 -13 24 0 6 -4 11 -8 11 -13 0 -159 213 -185 270 -4 8
-16 29 -27 45 -28 44 -112 218 -152 315 -5 14 -16 39 -23 55 -12 29 -33 82
-61 155 -13 35 -81 257 -110 360 -9 30 -20 69 -25 86 -5 17 -9 41 -9 54 0 13
-6 46 -14 74 -19 66 -35 146 -45 221 -5 33 -13 80 -19 105 -12 50 -32 346 -32
461 1 74 20 151 40 157 5 2 10 10 10 18 0 8 4 14 8 14 5 0 23 19 40 43 50 68
390 407 408 407 2 0 12 8 22 18 10 9 40 35 67 57 26 22 53 45 59 50 19 17 169
129 214 158 23 16 42 33 42 38 0 5 5 9 11 9 5 0 44 25 84 55 41 30 78 55 83
55 4 0 21 12 38 28 35 30 67 51 72 47 2 -2 -1 -30 -8 -62z m7818 -1208 c37
-95 45 -141 49 -287 4 -128 1 -159 -17 -235 -25 -97 -50 -157 -65 -154 -6 0
-11 107 -13 288 -3 293 4 462 18 447 4 -5 17 -31 28 -59z m-8768 -1560 c20
-21 60 -113 60 -137 0 -22 -176 75 -188 104 -2 5 -10 8 -17 8 -15 0 -28 27
-19 41 3 5 36 9 73 9 59 0 70 -3 91 -25z"/>
<path d="M3956 4888 c15 -110 11 -169 -15 -220 -14 -27 -28 -48 -33 -48 -4 0
-8 -5 -8 -10 0 -9 -52 -63 -97 -100 -61 -51 -267 -140 -323 -140 -8 0 -44 -6
-80 -14 -210 -48 -226 -50 -390 -50 -157 0 -168 1 -220 26 -75 35 -132 79
-150 114 -8 16 -17 31 -20 34 -23 20 -45 117 -50 215 l-5 110 -70 -70 c-58
-58 -178 -219 -194 -260 -2 -5 -10 -17 -17 -25 -21 -25 -124 -236 -124 -254 0
-10 -5 -27 -11 -38 -6 -11 -23 -84 -37 -162 -34 -186 -43 -486 -17 -574 26
-89 73 -193 128 -283 81 -135 306 -339 442 -402 81 -38 115 -49 161 -50 45 -2
49 0 49 21 0 25 -6 29 -160 103 -110 53 -236 147 -284 211 -19 26 -39 48 -43
48 -13 0 -9 38 6 52 7 8 17 24 20 36 4 12 12 22 17 22 5 0 9 7 9 15 0 8 5 15
10 15 6 0 10 5 10 11 0 6 6 16 13 23 6 7 30 34 52 60 22 26 65 66 95 89 30 22
57 44 60 47 7 9 78 45 108 55 21 6 22 4 16 -19 -3 -14 0 -49 6 -78 15 -65 16
-66 40 -103 11 -16 23 -36 26 -42 3 -7 12 -13 19 -13 7 0 15 -3 17 -7 6 -14
62 -48 98 -60 117 -39 167 -46 335 -46 160 -1 175 1 250 27 44 15 87 34 96 42
8 8 20 14 25 14 14 0 94 83 94 98 0 7 4 12 10 12 14 0 30 68 30 133 0 31 3 57
6 57 4 0 34 -12 68 -27 71 -32 166 -100 197 -144 11 -16 34 -44 50 -62 16 -17
29 -37 29 -43 0 -6 7 -17 15 -24 8 -7 15 -21 15 -30 0 -10 5 -20 12 -22 22 -8
-2 -55 -62 -119 -33 -35 -60 -67 -60 -71 0 -5 -6 -8 -14 -8 -8 0 -16 -4 -18
-8 -1 -5 -28 -27 -58 -49 -50 -38 -112 -70 -227 -118 -33 -14 -43 -23 -43 -42
0 -28 19 -30 79 -8 54 19 215 98 219 108 2 4 8 7 14 7 26 0 208 161 208 185 0
3 8 14 18 24 29 32 42 50 42 56 0 3 10 22 23 43 28 46 81 171 97 232 6 25 19
68 28 95 14 42 17 95 17 350 0 261 -2 308 -18 360 -10 33 -23 78 -29 100 -16
64 -67 194 -106 275 -36 73 -114 180 -185 251 -49 50 -170 129 -197 129 -22 0
-22 -2 -14 -62z"/>
<path d="M7336 4762 c-2 -4 0 -27 4 -52 27 -140 2 -227 -95 -325 -45 -45 -76
-68 -119 -90 -21 -11 -52 -27 -70 -37 -17 -9 -69 -26 -116 -38 -47 -12 -101
-25 -121 -31 -20 -5 -48 -9 -62 -9 -14 0 -54 -7 -89 -17 -95 -25 -328 -24
-388 1 -90 37 -105 48 -155 107 -46 55 -74 157 -75 272 0 62 -3 77 -15 77 -8
0 -15 -7 -15 -15 0 -8 -7 -15 -15 -15 -8 0 -15 -7 -15 -15 0 -8 -7 -15 -15
-15 -8 0 -15 -7 -15 -15 0 -8 -4 -15 -9 -15 -5 0 -20 -17 -32 -37 -13 -21 -27
-39 -31 -41 -4 -2 -8 -10 -8 -18 0 -8 -4 -14 -9 -14 -8 0 -47 -63 -126 -205
-31 -55 -72 -161 -85 -215 -5 -19 -13 -51 -18 -70 -32 -117 -46 -243 -47 -425
0 -173 2 -196 23 -253 12 -35 27 -71 31 -80 5 -9 24 -47 42 -84 18 -38 37 -68
41 -68 4 0 8 -5 8 -10 0 -30 214 -270 241 -270 5 0 9 -4 9 -8 0 -4 18 -19 40
-32 22 -14 40 -28 40 -32 0 -5 4 -8 10 -8 5 0 31 -12 57 -28 26 -15 64 -33 84
-40 41 -14 119 -16 119 -3 0 20 -44 61 -88 81 -88 41 -117 55 -122 60 -3 3
-17 11 -32 19 -15 8 -43 28 -62 45 -18 17 -50 45 -70 63 -20 17 -36 34 -36 38
0 3 -11 18 -25 33 -14 15 -25 35 -25 45 0 38 68 140 160 241 39 42 167 136
186 136 7 0 14 5 16 12 2 6 10 8 16 4 7 -4 10 -16 7 -27 -7 -22 22 -132 44
-169 13 -22 51 -61 87 -89 26 -20 137 -54 223 -67 120 -18 222 -18 308 0 75
16 193 63 193 77 0 5 6 9 13 9 41 2 133 182 125 246 -2 16 2 29 10 31 6 3 12
0 12 -6 0 -6 6 -11 13 -11 30 0 166 -103 214 -162 59 -74 103 -150 103 -180 0
-61 -190 -240 -315 -297 -141 -64 -161 -79 -137 -103 13 -13 122 17 122 33 0
5 9 9 19 9 11 0 26 6 33 13 7 6 44 28 82 47 73 38 160 107 194 155 12 17 35
46 52 65 16 19 33 44 36 55 4 11 10 22 13 25 18 15 87 172 102 235 10 38 15
65 38 200 17 95 14 446 -4 524 -8 36 -20 89 -26 116 -15 70 -37 137 -72 225
-30 73 -84 180 -96 190 -3 3 -24 28 -46 55 -52 65 -156 165 -172 165 -7 0 -13
4 -13 8 0 4 -15 13 -33 20 -39 14 -44 15 -51 4z"/>
<path d="M5166 2849 c-22 -17 -26 -28 -26 -73 0 -61 19 -86 66 -86 43 0 64 30
64 89 0 42 -4 53 -26 70 -15 12 -32 21 -39 21 -7 0 -24 -9 -39 -21z"/>
<path d="M3935 2332 c-7 -51 18 -209 35 -226 6 -6 10 -16 10 -23 0 -22 73
-115 121 -154 103 -83 224 -120 396 -121 166 0 244 27 343 119 l59 54 28 -56
c29 -62 96 -128 153 -152 128 -55 289 -67 418 -33 143 38 291 131 322 201 5
13 14 31 18 39 41 72 66 153 58 186 -6 21 -12 24 -50 24 -49 0 -63 -12 -90
-80 -42 -105 -71 -157 -103 -188 -19 -17 -39 -32 -44 -32 -5 0 -9 -3 -9 -8 0
-10 -84 -48 -135 -61 -53 -14 -189 -13 -246 2 -60 16 -129 60 -157 101 -38 55
-62 160 -61 259 1 75 -1 90 -17 102 -48 36 -88 12 -113 -69 -11 -36 -32 -87
-46 -116 -28 -55 -115 -149 -155 -167 -124 -58 -248 -57 -403 0 -38 14 -139
114 -158 157 -30 67 -40 106 -46 180 -7 91 -20 110 -79 110 l-42 0 -7 -48z"/>
<path d="M9353 512 c-18 -9 -33 -19 -33 -24 0 -4 -5 -8 -11 -8 -6 0 -25 -11
-43 -25 -18 -14 -36 -25 -39 -25 -4 0 -16 -8 -26 -17 -30 -28 -60 -48 -113
-78 -15 -8 -39 -26 -54 -40 -14 -13 -36 -27 -47 -31 -11 -4 -25 -10 -31 -15
-40 -33 -138 -99 -146 -99 -6 0 -10 -4 -10 -8 0 -5 -16 -16 -35 -25 -19 -9
-42 -24 -52 -32 -10 -9 -40 -32 -68 -51 l-50 -34 106 0 105 0 52 37 c28 21 94
65 146 98 53 33 96 63 96 68 0 4 5 7 12 7 6 0 35 18 64 40 29 22 56 40 59 40
3 0 30 18 60 40 30 22 58 40 63 40 23 0 33 31 30 93 l-3 64 -32 -15z"/>
<path d="M7750 415 c0 -9 9 -15 24 -15 13 0 26 7 30 15 4 11 -2 15 -24 15 -20
0 -30 -5 -30 -15z"/>
<path d="M4548 3 c84 -2 219 -2 300 0 81 1 12 3 -153 3 -165 0 -231 -2 -147
-3z"/>
</g>
</svg>
